<?xml version="1.0" encoding="utf-8"?>
<!-- Generator: Adobe Illustrator 27.7.0, SVG Export Plug-In . SVG Version: 6.00 Build 0)  -->
<svg version="1.1" id="icon" xmlns="http://www.w3.org/2000/svg" xmlns:xlink="http://www.w3.org/1999/xlink" x="0px" y="0px"
	 viewBox="0 0 26 18.5" style="enable-background:new 0 0 26 18.5;" xml:space="preserve">
<style type="text/css">
	.st0{fill:none;stroke:#FFFFFF;stroke-width:1.3;stroke-linecap:round;stroke-linejoin:round;stroke-miterlimit:10;}
</style>
<path class="st0" d="M23.4,7.8h-18C4,7.8,2.9,6.6,2.9,5.2V3.3c0-1.4,1.2-2.6,2.6-2.6h18V7.8z"/>
<polyline class="st0" points="25.3,7.8 23.4,7.8 23.4,0.7 25.3,0.7 "/>
<path class="st0" d="M14.8,14.8H3.3c-1.4,0-2.6-1.2-2.6-2.6v-1.9c0-1.4,1.2-2.6,2.6-2.6h18v7.1h-2.7"/>
<polyline class="st0" points="23.1,14.8 21.3,14.8 21.3,7.8 23.1,7.8 "/>
<polygon class="st0" points="18.3,17.9 16.6,16.9 15,17.9 15,11.3 18.3,11.3 "/>
</svg>
