<?xml version="1.0" encoding="utf-8"?>
<!-- Generator: Adobe Illustrator 27.7.0, SVG Export Plug-In . SVG Version: 6.00 Build 0)  -->
<svg version="1.1" id="icon" xmlns="http://www.w3.org/2000/svg" xmlns:xlink="http://www.w3.org/1999/xlink" x="0px" y="0px"
	 viewBox="0 0 26 23.1" style="enable-background:new 0 0 26 23.1;" xml:space="preserve">
<style type="text/css">
	.st0{fill:none;stroke:#FFFFFF;stroke-width:1.2;stroke-linecap:round;stroke-linejoin:round;stroke-miterlimit:10;}
</style>
<path class="st0" d="M9.7,5.9H2.9c-1.3,0-2.3,1-2.3,2.3v8.6v0.7v4.9l3.4-4.9h10.3c1.3,0,2.3-1,2.3-2.3v-2.9H12c-1.3,0-2.3-1-2.3-2.3
	V5.9z"/>
<path class="st0" d="M9.7,2.9v2.9h4.7c1.3,0,2.3,1,2.3,2.3v4.1h5.3l3.4,4.9v-4.9v-0.7V2.9c0-1.3-1-2.3-2.3-2.3H12
	C10.7,0.7,9.7,1.7,9.7,2.9z"/>
<path class="st0" d="M9.7,5.9v4.1c0,1.3,1,2.3,2.3,2.3h4.7V8.1c0-1.3-1-2.3-2.3-2.3H9.7z"/>
</svg>
