<?xml version="1.0" encoding="utf-8"?>
<!-- Generator: Adobe Illustrator 27.7.0, SVG Export Plug-In . SVG Version: 6.00 Build 0)  -->
<svg version="1.1" id="icon" xmlns="http://www.w3.org/2000/svg" xmlns:xlink="http://www.w3.org/1999/xlink" x="0px" y="0px"
	 viewBox="0 0 26 21.6" style="enable-background:new 0 0 26 21.6;" xml:space="preserve">
<style type="text/css">
	.st0{fill:none;stroke:#FFFFFF;stroke-width:1.3;stroke-linecap:round;stroke-linejoin:round;stroke-miterlimit:10;}
</style>
<g>
	<path class="st0" d="M23.8,13.2v-1.9H0.7v6.4c0,1.8,1.5,3.3,3.3,3.3h5.4c0.9,0,1.7-0.6,1.9-1.5l0.4-2.3c0.1-0.6,1-0.6,1.2,0
		l0.4,2.3c0.2,0.9,1,1.5,1.9,1.5h5.4c1.8,0,3.3-1.5,3.3-3.3v-0.9"/>
	<rect x="17.8" y="13.6" class="st0" width="7.4" height="3"/>
	<polyline class="st0" points="0.7,11.3 0.7,3.8 2.9,0.8 	"/>
	<polyline class="st0" points="23.8,11.3 23.8,3.8 21.7,0.8 	"/>
</g>
</svg>
