<?xml version="1.0" encoding="utf-8"?>
<!-- Generator: Adobe Illustrator 27.7.0, SVG Export Plug-In . SVG Version: 6.00 Build 0)  -->
<svg version="1.1" id="icon" xmlns="http://www.w3.org/2000/svg" xmlns:xlink="http://www.w3.org/1999/xlink" x="0px" y="0px"
	 viewBox="0 0 26 22.3" style="enable-background:new 0 0 26 22.3;" xml:space="preserve">
<style type="text/css">
	.st0{fill:none;stroke:#FFFFFF;stroke-width:1.3;stroke-linecap:round;stroke-linejoin:round;stroke-miterlimit:10;}
</style>
<g>
	<path class="st0" d="M9.4,12.8c0.3,0.1,0.7,0.2,1.1,0.2h3.1v2.6l3.5-2.6h4.4c2.1,0,3.8-1.7,3.8-3.8V4.6c0-2.1-1.7-3.8-3.8-3.8h-11
		c-2.1,0-3.8,1.7-3.8,3.8v4.6"/>
	<path class="st0" d="M12.6,21.6v-2c0-0.9-0.6-1.7-1.4-2l-2-0.6c-0.8-0.2-1.3-1-1.3-1.8v-0.1c0.6-0.3,1-0.9,1-1.6v-2.2
		c0-0.9-0.8-1.7-1.7-1.7H6.2c-0.9,0-1.7,0.8-1.7,1.7v2.2c0,0.7,0.4,1.3,1,1.6v0c0,0.9-0.6,1.7-1.4,2l-1.9,0.6
		c-0.9,0.3-1.4,1.1-1.4,2v2"/>
	<line class="st0" x1="11.4" y1="4.8" x2="20.5" y2="4.8"/>
	<line class="st0" x1="11.4" y1="7.2" x2="20.5" y2="7.2"/>
	<line class="st0" x1="11.4" y1="9.6" x2="20.5" y2="9.6"/>
</g>
</svg>
